<svg version="1" xmlns="http://www.w3.org/2000/svg" width="253.333" height="253.333" viewBox="0 0 190.000000 190.000000"><path d="M0 95v95h190V0H0v95zm127.9-29.2C145 82.5 159 96.6 159 97.2c0 1.4-8.1 10.8-9.3 10.8-.6 0-1.9-.7-2.9-1.6-1.5-1.4-1.8-1.4-2.3-.3-.3.8-.4 11.3-.3 23.4l.3 22 9.8.3c9.5.3 9.8.3 9.5 2.5l-.3 2.2h-137V154c0-2.5.2-2.5 8.8-2.8l8.7-.3V129c0-20.2-.5-24.3-2.5-21-1.2 2-4.1.9-7.2-3-1.8-2.1-3.3-4.2-3.3-4.7s3.6-4.4 8-8.8l8-7.9.2-17.1.3-17 8.3-.3 8.2-.3v7c0 3.8.4 7.2.9 7.6.6.3 7.4-6 15.2-14 7.9-8 14.8-14.4 15.5-14.3.7.2 15.2 14 32.3 30.6z"/><path d="M77 125v26h35V99H77v26zm12 .5c0 5.8-.2 6.5-2 6.5s-2-.7-2-6.5.2-6.5 2-6.5 2 .7 2 6.5z"/></svg>